# xmcd CD database file
#
# Track frame offsets:
#	150
#	24980
#	43662
#	63025
#	78697
#	94942
#	109265
#	129002
#	145315
#	164550
#	184802
#
# Disc length: 2812 seconds
#
# Revision: 0
# Processed by: cddbd v1.5.1PL0 Copyright (c) Steve Scherf et al.
# Submitted via: CDex 1.51
#
DISCID=900afa0b
DTITLE=Masahide Sakuma - in a garden
DYEAR=1991
DGENRE=New Age
TTITLE0=in a garden
TTITLE1=STAY
TTITLE2=YIN and YAN
TTITLE3=Nukeru Karada
TTITLE4=You and Me
TTITLE5=WILL
TTITLE6=Auf Wiedersehen
TTITLE7=DANCER
TTITLE8=NUDISM
TTITLE9=BRAZIL
TTITLE10=If ...
EXTD=YEAR: 1991
EXTT0=
EXTT1=
EXTT2=
EXTT3=
EXTT4=
EXTT5=
EXTT6=
EXTT7=
EXTT8=
EXTT9=
EXTT10=
PLAYORDER=
